<svg id="Ebene_1" data-name="Ebene 1" xmlns="http://www.w3.org/2000/svg" viewBox="0 0 283.84 64.24"><title>riege-software</title><rect y="21.27" width="10.63" height="42.53" fill="#1d1d1b"/><rect x="31.9" y="21.27" width="10.63" height="31.9" fill="#1d1d1b"/><rect x="53.17" y="10.63" width="21.27" height="10.63" fill="#5f6622"/><rect x="53.17" y="31.9" width="21.27" height="10.63" fill="#5f6622"/><rect x="53.17" y="53.16" width="21.27" height="10.64" fill="#5f6622"/><rect x="85.08" y="21.26" width="10.63" height="31.9" fill="#a1a250"/><rect x="95.71" y="10.63" width="21.27" height="10.63" fill="#a1a250"/><rect x="95.71" y="53.16" width="21.27" height="10.63" fill="#a1a250"/><polygon points="106.34 31.9 106.34 42.53 116.97 42.53 116.97 53.16 127.61 53.16 127.61 42.53 127.61 31.98 127.61 31.9 106.34 31.9" fill="#a1a250"/><rect x="138.24" y="10.63" width="21.27" height="10.63" fill="#c8a800"/><rect x="138.24" y="31.9" width="21.27" height="10.63" fill="#c8a800"/><rect x="138.24" y="53.16" width="21.27" height="10.63" fill="#c8a800"/><rect x="31.9" width="10.63" height="10.63" fill="#1d1d1b"/><rect x="10.63" y="10.63" width="21.27" height="10.63" fill="#1d1d1b"/><path d="M185.63,48c-.57-1.72-1.34-3.8-4.27-3.8a3.25,3.25,0,0,0-3.54,3.32c0,2.23,1.75,2.93,4.69,4,2.49,1,6.06,2.33,6.06,6.41,0,2.65-1.79,6.22-6.79,6.22a7.9,7.9,0,0,1-5.23-1.79,7.26,7.26,0,0,1-2.1-4.24l2.36-.67c.32,1.4,1.05,4.53,5,4.53,3.19,0,4-2.23,4-3.64,0-2.52-2.17-3.44-4.18-4.21-2.46-1-3.44-1.34-4.56-2.33a5.81,5.81,0,0,1-1.85-4.21c0-2.58,1.88-5.61,6.28-5.61,4.78,0,5.9,3.76,6.35,5.29Z" fill="#1d1d1b"/><path d="M204.06,55.76c0,2.77-.45,8.48-6.06,8.48-4.88,0-6-4.62-6-8.29,0-3.19.77-8.32,6.09-8.32C203,47.63,204.06,52.44,204.06,55.76Zm-9.47.19c0,1.79.16,6.35,3.44,6.35s3.45-4.56,3.45-6.35c0-1.47-.06-6.38-3.45-6.38S194.59,54.36,194.59,56Z" fill="#1d1d1b"/><path d="M213.83,48.07V50H211V63.8h-2.33V50h-2.26V48.07h2.26c.06-3.16.1-6,4.18-6a7.12,7.12,0,0,1,1.79.19v1.91a3.94,3.94,0,0,0-1.12-.16c-2.36,0-2.52,1.12-2.52,4.05Z" fill="#1d1d1b"/><path d="M221.27,44.18v3.89h3.06V50h-3.06V57.9c0,3,0,4.3,2.42,4.3a5.87,5.87,0,0,0,1.4-.16v2a12,12,0,0,1-2.17.22c-4,0-4-2.55-4-6.35V50h-2.27V48.07h2.27V44.41Z" fill="#1d1d1b"/><path d="M229.72,48.07l2.71,11.8,2.68-11.8h1.69L239.7,60l2.81-11.93h1.95L240.59,63.8h-2l-2.68-11.07L233.42,63.8h-2.07l-4-15.72Z" fill="#1d1d1b"/><path d="M247.62,51.68a4.51,4.51,0,0,1,2.55-3.38,6.65,6.65,0,0,1,3-.67,5.23,5.23,0,0,1,4.15,1.66c1,1.15,1,3.06,1,4.85v4.62a21.69,21.69,0,0,0,.29,5h-2.23a16.39,16.39,0,0,1-.19-2.77c-.64,1.24-1.66,3.22-4.53,3.22A4.4,4.4,0,0,1,247,59.52,5.54,5.54,0,0,1,248.19,56c1.18-1.4,3.13-2,5.71-2a17.17,17.17,0,0,1,2.07.13v-.67c0-1.12,0-3.89-2.94-3.89a3,3,0,0,0-3.12,2.49Zm6.54,4.11c-3.22,0-4.69,1.24-4.69,3.79a2.4,2.4,0,0,0,2.62,2.71,3.61,3.61,0,0,0,3.22-2A7.27,7.27,0,0,0,256,56,8.64,8.64,0,0,0,254.16,55.79Z" fill="#1d1d1b"/><path d="M265.57,48.07v3.28c.45-1.12,1.53-3.92,4.53-3.7v2.61c-2.58-.29-4.27,1.5-4.27,5.39V63.8H263.5V48.07Z" fill="#1d1d1b"/><path d="M274.56,56.24c0,1.37,0,6.06,3.67,6.06,2.23,0,2.84-1.95,3.19-3.16l2.2.51c-1,3.67-3.25,4.59-5.52,4.59-4.5,0-6-4-6-8.07,0-5.9,2.81-8.55,6.12-8.55,3.54,0,5.52,2.71,5.61,8.61Zm6.63-1.91c0-2.36-.73-4.75-3.22-4.75s-3.09,2.52-3.29,4.75Z" fill="#1d1d1b"/><path d="M181.9,10.62a8,8,0,0,1,4.31,1.18,5.63,5.63,0,0,1,2,4.62A5.72,5.72,0,0,1,184.74,22l4,9.89H186l-3.57-9.28H178.3v9.28h-2.58V10.62Zm-3.6,2.14v7.72h3.22c3,0,4.15-1.79,4.15-4.08,0-3.06-2.36-3.64-4-3.64Z" fill="#1d1d1b"/><path d="M193.06,13.39V10.68h2.52v2.71Zm2.42,2.77V31.89h-2.33V16.17Z" fill="#1d1d1b"/><path d="M202.6,24.33c0,1.37,0,6.06,3.67,6.06,2.23,0,2.84-1.95,3.19-3.16l2.2.51c-1,3.67-3.25,4.59-5.52,4.59-4.5,0-6-4-6-8.07,0-5.9,2.81-8.55,6.12-8.55,3.54,0,5.52,2.71,5.61,8.61Zm6.63-1.91c0-2.36-.73-4.75-3.22-4.75s-3.09,2.52-3.29,4.75Z" fill="#1d1d1b"/><path d="M227.78,15.69a2.7,2.7,0,0,0-.64-.06c-1.21,0-1.53,1-1.66,2a5.74,5.74,0,0,1,1.21,3.54,5.17,5.17,0,0,1-5.29,5.39,6.61,6.61,0,0,1-1.95-.29c-.57.19-1.31.45-1.31,1.47,0,1.4.89,1.44,4.15,1.59s6,.32,6,4c0,4.3-5.13,4.56-6.66,4.56-2,0-6.25-.41-6.25-4.12a2.89,2.89,0,0,1,2.07-3.12A2.76,2.76,0,0,1,216,28.19a3,3,0,0,1,2-2.9,5.2,5.2,0,0,1-1.82-4.15,5.3,5.3,0,0,1,5.26-5.42,5.57,5.57,0,0,1,2.62.67c.54-2.71,1.85-2.71,3.7-2.68Zm-10,17.67c0,2.11,1.66,2.65,4,2.65,1.34,0,4.12-.22,4.12-2.58a1.77,1.77,0,0,0-1.37-1.88c-.57-.16-1.09-.19-5.45-.32A2.4,2.4,0,0,0,217.73,33.36Zm.89-12.15c0,2.74,1.66,3.51,2.81,3.51,1.47,0,2.87-1.18,2.87-3.51,0-1.63-.8-3.54-2.74-3.54C218.82,17.67,218.62,20.31,218.62,21.21Z" fill="#1d1d1b"/><path d="M232.86,24.33c0,1.37,0,6.06,3.67,6.06,2.23,0,2.84-1.95,3.19-3.16l2.2.51c-1,3.67-3.25,4.59-5.52,4.59-4.5,0-6-4-6-8.07,0-5.9,2.81-8.55,6.12-8.55,3.54,0,5.52,2.71,5.61,8.61Zm6.63-1.91c0-2.36-.73-4.75-3.22-4.75s-3.09,2.52-3.29,4.75Z" fill="#1d1d1b"/></svg>